<?xml version="1.0" encoding="utf-8"?>
<!-- Generator: Adobe Illustrator 23.0.0, SVG Export Plug-In . SVG Version: 6.00 Build 0)  -->
<svg version="1.1" id="图层_1" xmlns="http://www.w3.org/2000/svg" xmlns:xlink="http://www.w3.org/1999/xlink" x="0px" y="0px"
	 viewBox="0 0 30 30" enable-background="new 0 0 30 30" xml:space="preserve">
<path fill="#5A5A5A" d="M24.56,19.86c-0.28-0.28-0.74-0.28-1.02,0c-0.28,0.28-0.28,0.75,0,1.03c2.19,2.2,3.39,5.13,3.39,8.24
	c0,0.4,0.32,0.73,0.72,0.73c0.4,0,0.72-0.33,0.72-0.73C28.37,25.64,27.02,22.34,24.56,19.86L24.56,19.86z M15.34,0
	c-4.79,0-8.69,3.92-8.69,8.75c0,3.44,1.98,6.42,4.86,7.85c-2.01,0.62-3.86,1.73-5.39,3.27c-2.46,2.48-3.82,5.77-3.82,9.28
	c0,0.4,0.32,0.73,0.72,0.73c0.4,0,0.72-0.33,0.72-0.73c0-3.11,1.21-6.04,3.39-8.25c2.11-2.12,4.89-3.33,7.86-3.41
	c0.11,0,0.22,0.01,0.33,0.01c4.79,0,8.69-3.92,8.69-8.75C24.03,3.92,20.13,0,15.34,0z M15.46,16.03c-0.04-0.01-0.08-0.01-0.12-0.01
	c-0.11,0-0.22,0-0.33,0c-3.84-0.17-6.91-3.37-6.91-7.28c0-4.02,3.25-7.29,7.24-7.29s7.24,3.27,7.24,7.29
	C22.58,12.72,19.4,15.97,15.46,16.03L15.46,16.03z"/>
</svg>
